<?xml version="1.0" encoding="iso-8859-1"?>
<!-- Generator: Adobe Illustrator 19.0.0, SVG Export Plug-In . SVG Version: 6.00 Build 0)  -->
<svg version="1.1" id="Capa_1" xmlns="http://www.w3.org/2000/svg" xmlns:xlink="http://www.w3.org/1999/xlink" x="0px" y="0px"
	 viewBox="0 0 397.233 397.233" style="enable-background:new 0 0 397.233 397.233;" xml:space="preserve">
<g id="main">
<polygon style="fill:#4dc444;" points="198.862,56.282 117.486,56.282 117.486,40.282 198.862,40.282 169.891,11.312 181.204,0
	229.486,48.282 181.267,96.5 169.956,85.188 "/>
<path style="fill:#F9E0D2;" d="M130.859,146.985c19.778,19.778,18.728,38.59,18.712,61.207L257.04,100.723
	c12.446-12.446,32.81-12.445,45.255,0s12.446,32.81,0,45.255l-49.599,49.599c16.815-1.717,31.866,9.59,34.62,26.406l20.523,76.933
	c2.817,10.646,0.102,22.434-8.226,30.762l-37.211,37.211c-40.458,40.458-106.032,40.458-146.49,0
	c-19.595-19.595-29.608-45.086-30.207-70.755l-0.102-154.919C85.567,119.969,115.647,131.772,130.859,146.985z"/>
<g>
	<path style="fill:#F6D2BF;" d="M220.871,182.102l59.85-59.85c13.337-13.337,35.936,4.13,25.06,19.539
		c-1.033,1.463-2.202,2.857-3.509,4.164l-49.803,49.803h-25.941C219.401,195.758,215.831,187.141,220.871,182.102z"/>
	<path style="fill:#F6D2BF;" d="M149.571,208.192l-20.001,20.001c-5.04,5.04-13.657,1.47-13.657-5.657v-71.41
		c0-6.654,7.885-10.674,12.918-6.322C150.979,163.949,149.584,188.758,149.571,208.192z"/>
	<path style="fill:#F6D2BF;" d="M111.274,360.876c41.206,18.71,90.603,13.315,126.932-16.101
		c5.68-4.595,42.041-40.938,64.689-63.657l0.161-0.136l4.784,17.934c2.817,10.646,0.102,22.434-8.226,30.762
		c-6.498,6.498-38.691,39.147-45.364,44.546c-42.586,34.484-106.388,30.309-143.73-13.286L111.274,360.876z"/>
</g>
</g>
</svg>
