<?xml version="1.0" encoding="iso-8859-1"?>
<!-- Generator: Adobe Illustrator 16.0.0, SVG Export Plug-In . SVG Version: 6.00 Build 0)  -->
<!DOCTYPE svg PUBLIC "-//W3C//DTD SVG 1.1//EN" "http://www.w3.org/Graphics/SVG/1.1/DTD/svg11.dtd">
<svg version="1.1" id="Capa_1" xmlns="http://www.w3.org/2000/svg" xmlns:xlink="http://www.w3.org/1999/xlink" x="0px" y="0px"
	 width="377.343px" height="377.343px" viewBox="0 0 377.343 377.343" style="enable-background:new 0 0 377.343 377.343;"
	 xml:space="preserve">
<g>
	<path d="M301.689,53.505H75.651c-10.876,0-19.725,8.843-19.725,19.713v230.904c0,10.878,8.843,19.727,19.725,19.727h226.039
		c10.873,0,19.722-8.843,19.722-19.727V73.218C321.406,62.348,312.562,53.505,301.689,53.505z M192.235,150.98l-57.806,75.188
		c-0.584,0.757-1.49,1.197-2.438,1.197c-0.952,0.007-1.853-0.44-2.43-1.197L71.762,150.98c-0.432-0.561-0.646-1.22-0.64-1.871
		c0-0.637,0.203-1.289,0.616-1.844c0.818-1.102,2.288-1.519,3.57-1.013l38.282,15.123V72.769c0-1.69,1.368-3.081,3.064-3.064h30.679
		c1.691-0.005,3.059,1.374,3.07,3.07l-0.012,88.601l38.278-15.117c1.282-0.507,2.738-0.091,3.575,1.012
		C193.085,148.37,193.085,149.883,192.235,150.98z M338.677,0H38.662C19.094,0,3.226,15.869,3.226,35.434v306.462
		c0,19.581,15.869,35.447,35.437,35.447h300.02c19.568,0,35.436-15.866,35.436-35.447V35.434C374.117,15.869,358.25,0,338.677,0z
		 M335.381,304.122c0,18.572-15.113,33.691-33.691,33.691H75.651c-18.576,0-33.695-15.114-33.695-33.691V73.218
		c0-18.569,15.114-33.688,33.695-33.688h226.039c18.572,0,33.691,15.114,33.691,33.688V304.122z"/>
</g>
<g>
</g>
<g>
</g>
<g>
</g>
<g>
</g>
<g>
</g>
<g>
</g>
<g>
</g>
<g>
</g>
<g>
</g>
<g>
</g>
<g>
</g>
<g>
</g>
<g>
</g>
<g>
</g>
<g>
</g>
</svg>
